{
    "asset" : {
        "generator" : "Khronos glTF Blender I/O v1.4.40",
        "version" : "2.0"
    },
    "scene" : 0,
    "scenes" : [
        {
            "name" : "Scene",
            "nodes" : [
                0
            ]
        }
    ],
    "nodes" : [
        {
            "mesh" : 0,
            "name" : "TBC",
            "scale" : [
                1.134174108505249,
                1.134174108505249,
                1.134174108505249
            ]
        }
    ],
    "materials" : [
        {
            "doubleSided" : true,
            "name" : "CarMat",
            "normalTexture" : {
                "index" : 0,
                "texCoord" : 0
            },
            "pbrMetallicRoughness" : {
                "baseColorTexture" : {
                    "index" : 1,
                    "texCoord" : 0
                },
                "metallicRoughnessTexture" : {
                    "index" : 2,
                    "texCoord" : 0
                }
            }
        }
    ],
    "meshes" : [
        {
            "name" : "Cube.043",
            "primitives" : [
                {
                    "attributes" : {
                        "POSITION" : 0,
                        "NORMAL" : 1,
                        "TEXCOORD_0" : 2
                    },
                    "indices" : 3,
                    "material" : 0
                }
            ]
        }
    ],
    "textures" : [
        {
            "sampler" : 0,
            "source" : 0
        },
        {
            "sampler" : 0,
            "source" : 1
        },
        {
            "sampler" : 0,
            "source" : 2
        }
    ],
    "images" : [
        {
            "bufferView" : 4,
            "mimeType" : "image/png",
            "name" : "SkyboxStuff_Car_CarMat_Normal"
        },
        {
            "bufferView" : 5,
            "mimeType" : "image/png",
            "name" : "SkyboxStuff_Car_CarMat_BaseMap"
        },
        {
            "bufferView" : 6,
            "mimeType" : "image/png",
            "name" : "SkyboxStuff_Car_CarMat_MaskMap"
        }
    ],
    "accessors" : [
        {
            "bufferView" : 0,
            "componentType" : 5126,
            "count" : 2744,
            "max" : [
                2.2203476428985596,
                2.5195021629333496,
                8.112395286560059
            ],
            "min" : [
                -2.2203476428985596,
                -2.055718421936035,
                -3.456702947616577
            ],
            "type" : "VEC3"
        },
        {
            "bufferView" : 1,
            "componentType" : 5126,
            "count" : 2744,
            "type" : "VEC3"
        },
        {
            "bufferView" : 2,
            "componentType" : 5126,
            "count" : 2744,
            "type" : "VEC2"
        },
        {
            "bufferView" : 3,
            "componentType" : 5123,
            "count" : 9168,
            "type" : "SCALAR"
        }
    ],
    "bufferViews" : [
        {
            "buffer" : 0,
            "byteLength" : 32928,
            "byteOffset" : 0
        },
        {
            "buffer" : 0,
            "byteLength" : 32928,
            "byteOffset" : 32928
        },
        {
            "buffer" : 0,
            "byteLength" : 21952,
            "byteOffset" : 65856
        },
        {
            "buffer" : 0,
            "byteLength" : 18336,
            "byteOffset" : 87808
        },
        {
            "buffer" : 0,
            "byteLength" : 1040368,
            "byteOffset" : 106144
        },
        {
            "buffer" : 0,
            "byteLength" : 878106,
            "byteOffset" : 1146512
        },
        {
            "buffer" : 0,
            "byteLength" : 451371,
            "byteOffset" : 2024620
        }
    ],
    "samplers" : [
        {
            "magFilter" : 9729,
            "minFilter" : 9986
        }
    ],
    "buffers" : [
        {
            "byteLength" : 2475992,
            "uri" : "data:application/octet-stream;base64,"
        }
    ]
}
