{
    "asset" : {
        "generator" : "Khronos glTF Blender I/O v1.4.40",
        "version" : "2.0"
    },
    "scene" : 0,
    "scenes" : [
        {
            "name" : "Scene",
            "nodes" : [
                0
            ]
        }
    ],
    "nodes" : [
        {
            "mesh" : 0,
            "name" : "TBC-Door",
            "scale" : [
                1.134174108505249,
                1.134174108505249,
                1.134174108505249
            ],
            "translation" : [
                2.2556111812591553,
                0.3974861800670624,
                -0.6254056096076965
            ]
        }
    ],
    "materials" : [
        {
            "doubleSided" : true,
            "name" : "CarMat",
            "normalTexture" : {
                "index" : 0,
                "texCoord" : 0
            },
            "pbrMetallicRoughness" : {
                "baseColorTexture" : {
                    "index" : 1,
                    "texCoord" : 0
                },
                "metallicRoughnessTexture" : {
                    "index" : 2,
                    "texCoord" : 0
                }
            }
        }
    ],
    "meshes" : [
        {
            "name" : "Cube.044",
            "primitives" : [
                {
                    "attributes" : {
                        "POSITION" : 0,
                        "NORMAL" : 1,
                        "TEXCOORD_0" : 2
                    },
                    "indices" : 3,
                    "material" : 0
                }
            ]
        }
    ],
    "textures" : [
        {
            "sampler" : 0,
            "source" : 0
        },
        {
            "sampler" : 0,
            "source" : 1
        },
        {
            "sampler" : 0,
            "source" : 2
        }
    ],
    "images" : [
        {
            "bufferView" : 4,
            "mimeType" : "image/png",
            "name" : "SkyboxStuff_Car_CarMat_Normal"
        },
        {
            "bufferView" : 5,
            "mimeType" : "image/png",
            "name" : "SkyboxStuff_Car_CarMat_BaseMap"
        },
        {
            "bufferView" : 6,
            "mimeType" : "image/png",
            "name" : "SkyboxStuff_Car_CarMat_MaskMap"
        }
    ],
    "accessors" : [
        {
            "bufferView" : 0,
            "componentType" : 5126,
            "count" : 94,
            "max" : [
                0.14762401580810547,
                1.9329566955566406,
                2.6160049438476562
            ],
            "min" : [
                -0.22083497047424316,
                -1.1177051067352295,
                -0.018903732299804688
            ],
            "type" : "VEC3"
        },
        {
            "bufferView" : 1,
            "componentType" : 5126,
            "count" : 94,
            "type" : "VEC3"
        },
        {
            "bufferView" : 2,
            "componentType" : 5126,
            "count" : 94,
            "type" : "VEC2"
        },
        {
            "bufferView" : 3,
            "componentType" : 5123,
            "count" : 276,
            "type" : "SCALAR"
        }
    ],
    "bufferViews" : [
        {
            "buffer" : 0,
            "byteLength" : 1128,
            "byteOffset" : 0
        },
        {
            "buffer" : 0,
            "byteLength" : 1128,
            "byteOffset" : 1128
        },
        {
            "buffer" : 0,
            "byteLength" : 752,
            "byteOffset" : 2256
        },
        {
            "buffer" : 0,
            "byteLength" : 552,
            "byteOffset" : 3008
        },
        {
            "buffer" : 0,
            "byteLength" : 1040368,
            "byteOffset" : 3560
        },
        {
            "buffer" : 0,
            "byteLength" : 878106,
            "byteOffset" : 1043928
        },
        {
            "buffer" : 0,
            "byteLength" : 451371,
            "byteOffset" : 1922036
        }
    ],
    "samplers" : [
        {
            "magFilter" : 9729,
            "minFilter" : 9986
        }
    ],
    "buffers" : [
        {
            "byteLength" : 2373408,
            "uri" : "data:application/octet-stream;base64,"
        }
    ]
}
