{
    "asset" : {
        "generator" : "Khronos glTF Blender I/O v1.4.40",
        "version" : "2.0"
    },
    "scene" : 0,
    "scenes" : [
        {
            "name" : "Scene",
            "nodes" : [
                0
            ]
        }
    ],
    "nodes" : [
        {
            "mesh" : 0,
            "name" : "The Only Real Car.001"
        }
    ],
    "materials" : [
        {
            "doubleSided" : true,
            "name" : "CarMat",
            "pbrMetallicRoughness" : {
                "baseColorFactor" : [
                    0.800000011920929,
                    0.800000011920929,
                    0.800000011920929,
                    1
                ],
                "metallicFactor" : 0,
                "roughnessFactor" : 0.5
            }
        }
    ],
    "meshes" : [
        {
            "name" : "Cube.043",
            "primitives" : [
                {
                    "attributes" : {
                        "POSITION" : 0,
                        "NORMAL" : 1,
                        "TEXCOORD_0" : 2
                    },
                    "indices" : 3,
                    "material" : 0
                }
            ]
        }
    ],
    "accessors" : [
        {
            "bufferView" : 0,
            "componentType" : 5126,
            "count" : 2625,
            "max" : [
                2.5182607173919678,
                2.8575541973114014,
                9.200868606567383
            ],
            "min" : [
                -2.5182607173919678,
                -2.331542491912842,
                -3.9205029010772705
            ],
            "type" : "VEC3"
        },
        {
            "bufferView" : 1,
            "componentType" : 5126,
            "count" : 2625,
            "type" : "VEC3"
        },
        {
            "bufferView" : 2,
            "componentType" : 5126,
            "count" : 2625,
            "type" : "VEC2"
        },
        {
            "bufferView" : 3,
            "componentType" : 5123,
            "count" : 8706,
            "type" : "SCALAR"
        }
    ],
    "bufferViews" : [
        {
            "buffer" : 0,
            "byteLength" : 31500,
            "byteOffset" : 0
        },
        {
            "buffer" : 0,
            "byteLength" : 31500,
            "byteOffset" : 31500
        },
        {
            "buffer" : 0,
            "byteLength" : 21000,
            "byteOffset" : 63000
        },
        {
            "buffer" : 0,
            "byteLength" : 17412,
            "byteOffset" : 84000
        }
    ],
    "buffers" : [
        {
            "byteLength" : 101412,
            "uri" : "data:application/octet-stream;base64,"
        }
    ]
}
